<svg xmlns="http://www.w3.org/2000/svg" viewBox="0 0 1200 700"><rect width="1200" height="700" rx="40" fill="#0B1424"/><g opacity=".22" stroke="#A28E65" fill="none" stroke-width="4"><path d="M0 0 C300 30 600 100 1200 20"/><path d="M0 70 C300 100 600 160 1200 100"/><path d="M0 140 C300 170 600 220 1200 180"/><path d="M0 210 C300 240 600 280 1200 260"/><path d="M0 280 C300 310 600 340 1200 340"/><path d="M0 350 C300 380 600 400 1200 420"/><path d="M0 420 C300 450 600 460 1200 500"/><path d="M0 490 C300 520 600 520 1200 580"/><path d="M0 560 C300 590 600 580 1200 660"/><path d="M0 630 C300 660 600 640 1200 740"/></g><path d="M600 170c-90 0-160 70-160 160 0 145 160 270 160 270s160-125 160-270c0-90-70-160-160-160z" fill="#D4B975"/><circle cx="600" cy="330" r="55" fill="#0B1424"/></svg>